<svg width="18" height="12" viewBox="0 0 18 12" fill="none" xmlns="http://www.w3.org/2000/svg">
<path d="M9.55469 4.46875C9.55469 4.875 9.51823 5.24479 9.44531 5.57812C9.3776 5.90625 9.26823 6.20833 9.11719 6.48438C8.96615 6.76042 8.77083 7.01562 8.53125 7.25C8.29167 7.48438 8.0026 7.70833 7.66406 7.92188L9.52344 11.2344L6.00781 11.9219L4.80469 8.59375L3.83594 8.625L3.69531 11.875H0.335938C0.361979 10.6875 0.385417 9.50521 0.40625 8.32812C0.432292 7.15104 0.460938 5.96875 0.492188 4.78125C0.502604 4.18229 0.513021 3.58854 0.523438 3C0.533854 2.41146 0.554688 1.81771 0.585938 1.21875C0.950521 1.08333 1.3099 0.971354 1.66406 0.882812C2.01823 0.794271 2.3724 0.726562 2.72656 0.679688C3.08594 0.627604 3.44792 0.59375 3.8125 0.578125C4.18229 0.557292 4.5599 0.546875 4.94531 0.546875C5.53906 0.546875 6.11198 0.630208 6.66406 0.796875C7.22135 0.958333 7.71354 1.20312 8.14062 1.53125C8.56771 1.85938 8.90885 2.26823 9.16406 2.75781C9.42448 3.2474 9.55469 3.81771 9.55469 4.46875ZM6.05469 4.71875C6.05469 4.5 6.02344 4.29948 5.96094 4.11719C5.90365 3.9349 5.8151 3.77865 5.69531 3.64844C5.58073 3.51302 5.4349 3.40885 5.25781 3.33594C5.08594 3.25781 4.88281 3.21875 4.64844 3.21875C4.54427 3.21875 4.44271 3.22656 4.34375 3.24219C4.24479 3.2526 4.14844 3.27083 4.05469 3.29688L3.92969 6.20312H4.11719C4.34115 6.20312 4.56771 6.17448 4.79688 6.11719C5.03125 6.0599 5.23958 5.97135 5.42188 5.85156C5.60938 5.73177 5.76042 5.57812 5.875 5.39062C5.99479 5.20312 6.05469 4.97917 6.05469 4.71875ZM17.75 1.01562L17.3125 4.3125C17.1615 4.27083 17.0104 4.24219 16.8594 4.22656C16.7083 4.21094 16.5573 4.20312 16.4062 4.20312C16.0208 4.20312 15.6536 4.25521 15.3047 4.35938C14.9557 4.45833 14.6458 4.61198 14.375 4.82031C14.1094 5.02865 13.8958 5.28906 13.7344 5.60156C13.5781 5.91406 13.5 6.28125 13.5 6.70312C13.5 6.97396 13.5417 7.20833 13.625 7.40625C13.7135 7.60417 13.8359 7.76823 13.9922 7.89844C14.1484 8.02865 14.3333 8.125 14.5469 8.1875C14.7604 8.25 14.9948 8.28125 15.25 8.28125C15.4427 8.28125 15.6432 8.26042 15.8516 8.21875C16.0599 8.17708 16.2656 8.1224 16.4688 8.05469C16.6719 7.98698 16.8698 7.90885 17.0625 7.82031C17.2552 7.73177 17.4323 7.64062 17.5938 7.54688L17.2812 11.2188C17.0781 11.3229 16.8568 11.4167 16.6172 11.5C16.3828 11.5781 16.1406 11.6484 15.8906 11.7109C15.6406 11.7682 15.3906 11.8125 15.1406 11.8438C14.8906 11.875 14.651 11.8906 14.4219 11.8906C13.7604 11.8906 13.1432 11.7682 12.5703 11.5234C11.9974 11.2786 11.5 10.9427 11.0781 10.5156C10.6562 10.0885 10.3229 9.58594 10.0781 9.00781C9.83854 8.42448 9.71875 7.79688 9.71875 7.125C9.71875 6.23438 9.84635 5.39583 10.1016 4.60938C10.3568 3.81771 10.7318 3.125 11.2266 2.53125C11.7214 1.9375 12.3333 1.46875 13.0625 1.125C13.7969 0.78125 14.6406 0.609375 15.5938 0.609375C15.9531 0.609375 16.3203 0.638021 16.6953 0.695312C17.0755 0.752604 17.4271 0.859375 17.75 1.01562Z" fill="white"/>
</svg>
