<svg width="142" height="13" viewBox="0 0 142 13" fill="none" xmlns="http://www.w3.org/2000/svg">
<path d="M9.55469 4.46875C9.55469 4.875 9.51823 5.24479 9.44531 5.57812C9.3776 5.90625 9.26823 6.20833 9.11719 6.48438C8.96615 6.76042 8.77083 7.01562 8.53125 7.25C8.29167 7.48438 8.0026 7.70833 7.66406 7.92188L9.52344 11.2344L6.00781 11.9219L4.80469 8.59375L3.83594 8.625L3.69531 11.875H0.335938C0.361979 10.6875 0.385417 9.50521 0.40625 8.32812C0.432292 7.15104 0.460938 5.96875 0.492188 4.78125C0.502604 4.18229 0.513021 3.58854 0.523438 3C0.533854 2.41146 0.554688 1.81771 0.585938 1.21875C0.950521 1.08333 1.3099 0.971354 1.66406 0.882812C2.01823 0.794271 2.3724 0.726562 2.72656 0.679688C3.08594 0.627604 3.44792 0.59375 3.8125 0.578125C4.18229 0.557292 4.5599 0.546875 4.94531 0.546875C5.53906 0.546875 6.11198 0.630208 6.66406 0.796875C7.22135 0.958333 7.71354 1.20312 8.14062 1.53125C8.56771 1.85938 8.90885 2.26823 9.16406 2.75781C9.42448 3.2474 9.55469 3.81771 9.55469 4.46875ZM6.05469 4.71875C6.05469 4.5 6.02344 4.29948 5.96094 4.11719C5.90365 3.9349 5.8151 3.77865 5.69531 3.64844C5.58073 3.51302 5.4349 3.40885 5.25781 3.33594C5.08594 3.25781 4.88281 3.21875 4.64844 3.21875C4.54427 3.21875 4.44271 3.22656 4.34375 3.24219C4.24479 3.2526 4.14844 3.27083 4.05469 3.29688L3.92969 6.20312H4.11719C4.34115 6.20312 4.56771 6.17448 4.79688 6.11719C5.03125 6.0599 5.23958 5.97135 5.42188 5.85156C5.60938 5.73177 5.76042 5.57812 5.875 5.39062C5.99479 5.20312 6.05469 4.97917 6.05469 4.71875ZM19.7578 6.01562C19.7578 6.48958 19.7031 6.94792 19.5938 7.39062C19.4844 7.82812 19.3255 8.23958 19.1172 8.625C18.9141 9.01042 18.6641 9.36458 18.3672 9.6875C18.0755 10.0052 17.7448 10.2786 17.375 10.5078C17.0104 10.737 16.612 10.9167 16.1797 11.0469C15.7474 11.1719 15.2891 11.2344 14.8047 11.2344C14.3359 11.2344 13.888 11.1745 13.4609 11.0547C13.0391 10.9349 12.6432 10.7682 12.2734 10.5547C11.9036 10.3359 11.5677 10.0755 11.2656 9.77344C10.9688 9.46615 10.7135 9.1276 10.5 8.75781C10.2917 8.38281 10.1276 7.98177 10.0078 7.55469C9.89323 7.1276 9.83594 6.68229 9.83594 6.21875C9.83594 5.76562 9.89062 5.32292 10 4.89062C10.1094 4.45312 10.2656 4.04167 10.4688 3.65625C10.6771 3.27083 10.9271 2.91667 11.2188 2.59375C11.5104 2.27083 11.8359 1.99219 12.1953 1.75781C12.5599 1.52344 12.9531 1.34115 13.375 1.21094C13.7969 1.08073 14.2422 1.01562 14.7109 1.01562C15.4661 1.01562 16.1536 1.13281 16.7734 1.36719C17.3984 1.60156 17.9297 1.9375 18.3672 2.375C18.8099 2.80729 19.151 3.33333 19.3906 3.95312C19.6354 4.56771 19.7578 5.25521 19.7578 6.01562ZM16.2891 6.21875C16.2891 5.99479 16.2552 5.77865 16.1875 5.57031C16.125 5.35677 16.0312 5.16927 15.9062 5.00781C15.7812 4.84115 15.625 4.70833 15.4375 4.60938C15.2552 4.50521 15.0443 4.45312 14.8047 4.45312C14.5599 4.45312 14.3411 4.4974 14.1484 4.58594C13.9557 4.67448 13.7891 4.79688 13.6484 4.95312C13.513 5.10417 13.4089 5.28385 13.3359 5.49219C13.263 5.69531 13.2266 5.91146 13.2266 6.14062C13.2266 6.35938 13.2578 6.57812 13.3203 6.79688C13.3828 7.01562 13.4766 7.21354 13.6016 7.39062C13.7266 7.56771 13.8802 7.71094 14.0625 7.82031C14.25 7.92969 14.4661 7.98438 14.7109 7.98438C14.9557 7.98438 15.1745 7.9375 15.3672 7.84375C15.5651 7.74479 15.7318 7.61458 15.8672 7.45312C16.0026 7.28646 16.1068 7.09635 16.1797 6.88281C16.2526 6.66927 16.2891 6.44792 16.2891 6.21875ZM33.8203 6.70312C33.8203 7.44792 33.7969 8.1901 33.75 8.92969C33.7031 9.66927 33.6484 10.4115 33.5859 11.1562L29.5703 11.3438C29.6901 10.4375 29.7969 9.53125 29.8906 8.625C29.9896 7.71354 30.0391 6.80208 30.0391 5.89062C30.0391 5.83333 30.0365 5.73438 30.0312 5.59375C30.026 5.44792 30.0156 5.28385 30 5.10156C29.9896 4.91927 29.9714 4.73177 29.9453 4.53906C29.9245 4.34115 29.8932 4.16146 29.8516 4C29.8151 3.83333 29.7682 3.69792 29.7109 3.59375C29.6536 3.48958 29.5859 3.4375 29.5078 3.4375C29.3255 3.4375 29.1823 3.50781 29.0781 3.64844C28.974 3.78385 28.8958 3.94792 28.8438 4.14062C28.7969 4.33333 28.7682 4.53125 28.7578 4.73438C28.7474 4.93229 28.7422 5.09375 28.7422 5.21875C28.7422 5.4375 28.7474 5.65625 28.7578 5.875C28.7682 6.09375 28.7734 6.31771 28.7734 6.54688C28.7734 7.35417 28.7526 8.15885 28.7109 8.96094C28.6745 9.76302 28.6276 10.5677 28.5703 11.375L24.8672 11.5156C24.987 10.6094 25.0911 9.70573 25.1797 8.80469C25.2734 7.89844 25.3203 6.98958 25.3203 6.07812C25.3203 6.02083 25.3177 5.91667 25.3125 5.76562C25.3073 5.61458 25.2969 5.44531 25.2812 5.25781C25.2708 5.07031 25.2526 4.875 25.2266 4.67188C25.2005 4.46875 25.1667 4.28385 25.125 4.11719C25.0885 3.94531 25.0417 3.80469 24.9844 3.69531C24.9271 3.58594 24.8568 3.53125 24.7734 3.53125C24.6432 3.53125 24.5339 3.58333 24.4453 3.6875C24.3568 3.78646 24.2839 3.91667 24.2266 4.07812C24.1745 4.23958 24.1328 4.41927 24.1016 4.61719C24.0755 4.8099 24.0547 5 24.0391 5.1875C24.0286 5.375 24.0208 5.54948 24.0156 5.71094C24.0156 5.86719 24.013 5.98438 24.0078 6.0625L23.8359 11.7656H19.8984C19.9818 10.8854 20.0651 10.0026 20.1484 9.11719C20.237 8.23177 20.3125 7.34896 20.375 6.46875C20.4427 5.58333 20.4974 4.69792 20.5391 3.8125C20.5807 2.92708 20.6016 2.04167 20.6016 1.15625L24.3203 1L24.3047 1.90625C24.4193 1.76042 24.5495 1.61458 24.6953 1.46875C24.8411 1.31771 24.9948 1.1849 25.1562 1.07031C25.3229 0.950521 25.4974 0.854167 25.6797 0.78125C25.8672 0.708333 26.0599 0.671875 26.2578 0.671875C26.513 0.671875 26.7422 0.692708 26.9453 0.734375C27.1484 0.770833 27.3307 0.835938 27.4922 0.929688C27.6589 1.02344 27.8047 1.15365 27.9297 1.32031C28.0547 1.48177 28.1641 1.6875 28.2578 1.9375C28.4245 1.75521 28.5911 1.58594 28.7578 1.42969C28.9297 1.27344 29.1094 1.14062 29.2969 1.03125C29.4844 0.916667 29.6875 0.828125 29.9062 0.765625C30.125 0.703125 30.3672 0.671875 30.6328 0.671875C31.138 0.671875 31.5677 0.770833 31.9219 0.96875C32.276 1.16146 32.5703 1.41927 32.8047 1.74219C33.0443 2.0651 33.2292 2.4349 33.3594 2.85156C33.4948 3.26823 33.5964 3.70052 33.6641 4.14844C33.7318 4.59635 33.7734 5.04167 33.7891 5.48438C33.8099 5.92708 33.8203 6.33333 33.8203 6.70312ZM44.3906 11.3281L40.5156 11.8281L40.0469 10.0625H38.2656L37.875 11.8281L33.8906 11.4375L37 1.03125L41.3438 0.8125L44.3906 11.3281ZM39.7656 7.67188L39.1719 4.95312L38.5938 7.67188H39.7656ZM54.25 8.04688C54.25 8.63542 54.2422 9.21875 54.2266 9.79688C54.2161 10.3698 54.1979 10.9479 54.1719 11.5312L49.6719 11.4531C49.8281 10.5312 49.9635 9.61198 50.0781 8.69531C50.1927 7.77344 50.25 6.84375 50.25 5.90625C50.25 5.83854 50.2474 5.72917 50.2422 5.57812C50.237 5.42708 50.2266 5.25781 50.2109 5.07031C50.1953 4.8776 50.1719 4.68229 50.1406 4.48438C50.1146 4.28125 50.0755 4.09635 50.0234 3.92969C49.9766 3.76302 49.9167 3.6276 49.8438 3.52344C49.776 3.41406 49.6927 3.35938 49.5938 3.35938C49.4167 3.35938 49.2656 3.41146 49.1406 3.51562C49.0208 3.61979 48.9193 3.75521 48.8359 3.92188C48.7578 4.08333 48.6953 4.26562 48.6484 4.46875C48.6016 4.67188 48.5651 4.875 48.5391 5.07812C48.5182 5.28125 48.5026 5.47396 48.4922 5.65625C48.487 5.83333 48.4844 5.97917 48.4844 6.09375C48.4583 7.01562 48.4375 7.93229 48.4219 8.84375C48.4062 9.75 48.3854 10.6667 48.3594 11.5938L44.375 11.7656C44.4792 9.92708 44.5781 8.09896 44.6719 6.28125C44.7708 4.46354 44.849 2.63542 44.9062 0.796875L48.5938 0.609375L48.5625 1.85938C48.7083 1.68229 48.8646 1.51562 49.0312 1.35938C49.2031 1.20312 49.3854 1.07031 49.5781 0.960938C49.7708 0.846354 49.974 0.757812 50.1875 0.695312C50.4062 0.627604 50.6354 0.59375 50.875 0.59375C51.3177 0.59375 51.7057 0.666667 52.0391 0.8125C52.3724 0.958333 52.6589 1.15625 52.8984 1.40625C53.138 1.65625 53.3385 1.95312 53.5 2.29688C53.6615 2.63542 53.7917 2.9974 53.8906 3.38281C53.9896 3.76823 54.0651 4.17188 54.1172 4.59375C54.1693 5.01042 54.2031 5.42188 54.2188 5.82812C54.2396 6.23438 54.25 6.6276 54.25 7.00781C54.25 7.38802 54.25 7.73438 54.25 8.04688ZM65.8594 1.01562L65.4219 4.3125C65.2708 4.27083 65.1198 4.24219 64.9688 4.22656C64.8177 4.21094 64.6667 4.20312 64.5156 4.20312C64.1302 4.20312 63.763 4.25521 63.4141 4.35938C63.0651 4.45833 62.7552 4.61198 62.4844 4.82031C62.2188 5.02865 62.0052 5.28906 61.8438 5.60156C61.6875 5.91406 61.6094 6.28125 61.6094 6.70312C61.6094 6.97396 61.651 7.20833 61.7344 7.40625C61.8229 7.60417 61.9453 7.76823 62.1016 7.89844C62.2578 8.02865 62.4427 8.125 62.6562 8.1875C62.8698 8.25 63.1042 8.28125 63.3594 8.28125C63.5521 8.28125 63.7526 8.26042 63.9609 8.21875C64.1693 8.17708 64.375 8.1224 64.5781 8.05469C64.7812 7.98698 64.9792 7.90885 65.1719 7.82031C65.3646 7.73177 65.5417 7.64062 65.7031 7.54688L65.3906 11.2188C65.1875 11.3229 64.9661 11.4167 64.7266 11.5C64.4922 11.5781 64.25 11.6484 64 11.7109C63.75 11.7682 63.5 11.8125 63.25 11.8438C63 11.875 62.7604 11.8906 62.5312 11.8906C61.8698 11.8906 61.2526 11.7682 60.6797 11.5234C60.1068 11.2786 59.6094 10.9427 59.1875 10.5156C58.7656 10.0885 58.4323 9.58594 58.1875 9.00781C57.9479 8.42448 57.8281 7.79688 57.8281 7.125C57.8281 6.23438 57.9557 5.39583 58.2109 4.60938C58.4661 3.81771 58.8411 3.125 59.3359 2.53125C59.8307 1.9375 60.4427 1.46875 61.1719 1.125C61.9062 0.78125 62.75 0.609375 63.7031 0.609375C64.0625 0.609375 64.4297 0.638021 64.8047 0.695312C65.1849 0.752604 65.5365 0.859375 65.8594 1.01562ZM75.8828 6.01562C75.8828 6.48958 75.8281 6.94792 75.7188 7.39062C75.6094 7.82812 75.4505 8.23958 75.2422 8.625C75.0391 9.01042 74.7891 9.36458 74.4922 9.6875C74.2005 10.0052 73.8698 10.2786 73.5 10.5078C73.1354 10.737 72.737 10.9167 72.3047 11.0469C71.8724 11.1719 71.4141 11.2344 70.9297 11.2344C70.4609 11.2344 70.013 11.1745 69.5859 11.0547C69.1641 10.9349 68.7682 10.7682 68.3984 10.5547C68.0286 10.3359 67.6927 10.0755 67.3906 9.77344C67.0938 9.46615 66.8385 9.1276 66.625 8.75781C66.4167 8.38281 66.2526 7.98177 66.1328 7.55469C66.0182 7.1276 65.9609 6.68229 65.9609 6.21875C65.9609 5.76562 66.0156 5.32292 66.125 4.89062C66.2344 4.45312 66.3906 4.04167 66.5938 3.65625C66.8021 3.27083 67.0521 2.91667 67.3438 2.59375C67.6354 2.27083 67.9609 1.99219 68.3203 1.75781C68.6849 1.52344 69.0781 1.34115 69.5 1.21094C69.9219 1.08073 70.3672 1.01562 70.8359 1.01562C71.5911 1.01562 72.2786 1.13281 72.8984 1.36719C73.5234 1.60156 74.0547 1.9375 74.4922 2.375C74.9349 2.80729 75.276 3.33333 75.5156 3.95312C75.7604 4.56771 75.8828 5.25521 75.8828 6.01562ZM72.4141 6.21875C72.4141 5.99479 72.3802 5.77865 72.3125 5.57031C72.25 5.35677 72.1562 5.16927 72.0312 5.00781C71.9062 4.84115 71.75 4.70833 71.5625 4.60938C71.3802 4.50521 71.1693 4.45312 70.9297 4.45312C70.6849 4.45312 70.4661 4.4974 70.2734 4.58594C70.0807 4.67448 69.9141 4.79688 69.7734 4.95312C69.638 5.10417 69.5339 5.28385 69.4609 5.49219C69.388 5.69531 69.3516 5.91146 69.3516 6.14062C69.3516 6.35938 69.3828 6.57812 69.4453 6.79688C69.5078 7.01562 69.6016 7.21354 69.7266 7.39062C69.8516 7.56771 70.0052 7.71094 70.1875 7.82031C70.375 7.92969 70.5911 7.98438 70.8359 7.98438C71.0807 7.98438 71.2995 7.9375 71.4922 7.84375C71.6901 7.74479 71.8568 7.61458 71.9922 7.45312C72.1276 7.28646 72.2318 7.09635 72.3047 6.88281C72.3776 6.66927 72.4141 6.44792 72.4141 6.21875ZM86.0312 8.04688C86.0312 8.63542 86.0234 9.21875 86.0078 9.79688C85.9974 10.3698 85.9792 10.9479 85.9531 11.5312L81.4531 11.4531C81.6094 10.5312 81.7448 9.61198 81.8594 8.69531C81.974 7.77344 82.0312 6.84375 82.0312 5.90625C82.0312 5.83854 82.0286 5.72917 82.0234 5.57812C82.0182 5.42708 82.0078 5.25781 81.9922 5.07031C81.9766 4.8776 81.9531 4.68229 81.9219 4.48438C81.8958 4.28125 81.8568 4.09635 81.8047 3.92969C81.7578 3.76302 81.6979 3.6276 81.625 3.52344C81.5573 3.41406 81.474 3.35938 81.375 3.35938C81.1979 3.35938 81.0469 3.41146 80.9219 3.51562C80.8021 3.61979 80.7005 3.75521 80.6172 3.92188C80.5391 4.08333 80.4766 4.26562 80.4297 4.46875C80.3828 4.67188 80.3464 4.875 80.3203 5.07812C80.2995 5.28125 80.2839 5.47396 80.2734 5.65625C80.2682 5.83333 80.2656 5.97917 80.2656 6.09375C80.2396 7.01562 80.2188 7.93229 80.2031 8.84375C80.1875 9.75 80.1667 10.6667 80.1406 11.5938L76.1562 11.7656C76.2604 9.92708 76.3594 8.09896 76.4531 6.28125C76.5521 4.46354 76.6302 2.63542 76.6875 0.796875L80.375 0.609375L80.3438 1.85938C80.4896 1.68229 80.6458 1.51562 80.8125 1.35938C80.9844 1.20312 81.1667 1.07031 81.3594 0.960938C81.5521 0.846354 81.7552 0.757812 81.9688 0.695312C82.1875 0.627604 82.4167 0.59375 82.6562 0.59375C83.099 0.59375 83.487 0.666667 83.8203 0.8125C84.1536 0.958333 84.4401 1.15625 84.6797 1.40625C84.9193 1.65625 85.1198 1.95312 85.2812 2.29688C85.4427 2.63542 85.5729 2.9974 85.6719 3.38281C85.7708 3.76823 85.8464 4.17188 85.8984 4.59375C85.9505 5.01042 85.9844 5.42188 86 5.82812C86.0208 6.23438 86.0312 6.6276 86.0312 7.00781C86.0312 7.38802 86.0312 7.73438 86.0312 8.04688ZM96.1094 1.04688L93.25 11.6094L89.375 11.8281L85.8594 1.625L89.5625 1.28125L91.0625 7.21875L92.5156 0.8125L96.1094 1.04688ZM104.664 5.6875C104.664 6.14062 104.633 6.59375 104.57 7.04688C103.68 7.10417 102.794 7.19792 101.914 7.32812C101.034 7.45312 100.154 7.57812 99.2734 7.70312C99.4089 8.07812 99.6198 8.3776 99.9062 8.60156C100.198 8.82552 100.544 8.9375 100.945 8.9375C101.154 8.9375 101.38 8.89844 101.625 8.82031C101.875 8.74219 102.122 8.64583 102.367 8.53125C102.612 8.41146 102.846 8.28385 103.07 8.14844C103.294 8.01302 103.487 7.89062 103.648 7.78125L103.273 11.3281C103.07 11.4844 102.849 11.6172 102.609 11.7266C102.375 11.8359 102.13 11.9245 101.875 11.9922C101.62 12.0599 101.362 12.1094 101.102 12.1406C100.841 12.1719 100.586 12.1875 100.336 12.1875C99.8203 12.1875 99.349 12.1172 98.9219 11.9766C98.4948 11.8359 98.1068 11.6406 97.7578 11.3906C97.4141 11.1354 97.112 10.8359 96.8516 10.4922C96.5911 10.1484 96.375 9.77344 96.2031 9.36719C96.0312 8.96094 95.901 8.53125 95.8125 8.07812C95.724 7.625 95.6797 7.16667 95.6797 6.70312C95.6797 6.21875 95.724 5.73438 95.8125 5.25C95.901 4.76562 96.0339 4.29948 96.2109 3.85156C96.3932 3.40365 96.6198 2.98958 96.8906 2.60938C97.1667 2.22396 97.487 1.88802 97.8516 1.60156C98.2161 1.3151 98.6276 1.09115 99.0859 0.929688C99.5495 0.768229 100.06 0.6875 100.617 0.6875C101.081 0.6875 101.503 0.752604 101.883 0.882812C102.268 1.00781 102.609 1.1849 102.906 1.41406C103.208 1.63802 103.469 1.90625 103.688 2.21875C103.911 2.53125 104.094 2.875 104.234 3.25C104.38 3.61979 104.487 4.01302 104.555 4.42969C104.628 4.84115 104.664 5.26042 104.664 5.6875ZM101.539 5.28125C101.539 5.13542 101.523 4.98698 101.492 4.83594C101.461 4.67969 101.409 4.53906 101.336 4.41406C101.268 4.28906 101.177 4.1875 101.062 4.10938C100.948 4.02604 100.805 3.98438 100.633 3.98438C100.424 3.98438 100.24 4.04167 100.078 4.15625C99.9219 4.26562 99.7865 4.40625 99.6719 4.57812C99.5573 4.74479 99.4635 4.92708 99.3906 5.125C99.3177 5.32292 99.263 5.50521 99.2266 5.67188L101.539 5.45312V5.28125ZM114.336 4.46875C114.336 4.875 114.299 5.24479 114.227 5.57812C114.159 5.90625 114.049 6.20833 113.898 6.48438C113.747 6.76042 113.552 7.01562 113.312 7.25C113.073 7.48438 112.784 7.70833 112.445 7.92188L114.305 11.2344L110.789 11.9219L109.586 8.59375L108.617 8.625L108.477 11.875H105.117C105.143 10.6875 105.167 9.50521 105.188 8.32812C105.214 7.15104 105.242 5.96875 105.273 4.78125C105.284 4.18229 105.294 3.58854 105.305 3C105.315 2.41146 105.336 1.81771 105.367 1.21875C105.732 1.08333 106.091 0.971354 106.445 0.882812C106.799 0.794271 107.154 0.726562 107.508 0.679688C107.867 0.627604 108.229 0.59375 108.594 0.578125C108.964 0.557292 109.341 0.546875 109.727 0.546875C110.32 0.546875 110.893 0.630208 111.445 0.796875C112.003 0.958333 112.495 1.20312 112.922 1.53125C113.349 1.85938 113.69 2.26823 113.945 2.75781C114.206 3.2474 114.336 3.81771 114.336 4.46875ZM110.836 4.71875C110.836 4.5 110.805 4.29948 110.742 4.11719C110.685 3.9349 110.596 3.77865 110.477 3.64844C110.362 3.51302 110.216 3.40885 110.039 3.33594C109.867 3.25781 109.664 3.21875 109.43 3.21875C109.326 3.21875 109.224 3.22656 109.125 3.24219C109.026 3.2526 108.93 3.27083 108.836 3.29688L108.711 6.20312H108.898C109.122 6.20312 109.349 6.17448 109.578 6.11719C109.812 6.0599 110.021 5.97135 110.203 5.85156C110.391 5.73177 110.542 5.57812 110.656 5.39062C110.776 5.20312 110.836 4.97917 110.836 4.71875ZM123.156 0.984375L123.078 4.29688L120.75 4.39062L120.469 11.6406L117.172 11.8125L116.875 4.5625L114.547 4.6875L114.641 1L123.156 0.984375ZM132.164 5.6875C132.164 6.14062 132.133 6.59375 132.07 7.04688C131.18 7.10417 130.294 7.19792 129.414 7.32812C128.534 7.45312 127.654 7.57812 126.773 7.70312C126.909 8.07812 127.12 8.3776 127.406 8.60156C127.698 8.82552 128.044 8.9375 128.445 8.9375C128.654 8.9375 128.88 8.89844 129.125 8.82031C129.375 8.74219 129.622 8.64583 129.867 8.53125C130.112 8.41146 130.346 8.28385 130.57 8.14844C130.794 8.01302 130.987 7.89062 131.148 7.78125L130.773 11.3281C130.57 11.4844 130.349 11.6172 130.109 11.7266C129.875 11.8359 129.63 11.9245 129.375 11.9922C129.12 12.0599 128.862 12.1094 128.602 12.1406C128.341 12.1719 128.086 12.1875 127.836 12.1875C127.32 12.1875 126.849 12.1172 126.422 11.9766C125.995 11.8359 125.607 11.6406 125.258 11.3906C124.914 11.1354 124.612 10.8359 124.352 10.4922C124.091 10.1484 123.875 9.77344 123.703 9.36719C123.531 8.96094 123.401 8.53125 123.312 8.07812C123.224 7.625 123.18 7.16667 123.18 6.70312C123.18 6.21875 123.224 5.73438 123.312 5.25C123.401 4.76562 123.534 4.29948 123.711 3.85156C123.893 3.40365 124.12 2.98958 124.391 2.60938C124.667 2.22396 124.987 1.88802 125.352 1.60156C125.716 1.3151 126.128 1.09115 126.586 0.929688C127.049 0.768229 127.56 0.6875 128.117 0.6875C128.581 0.6875 129.003 0.752604 129.383 0.882812C129.768 1.00781 130.109 1.1849 130.406 1.41406C130.708 1.63802 130.969 1.90625 131.188 2.21875C131.411 2.53125 131.594 2.875 131.734 3.25C131.88 3.61979 131.987 4.01302 132.055 4.42969C132.128 4.84115 132.164 5.26042 132.164 5.6875ZM129.039 5.28125C129.039 5.13542 129.023 4.98698 128.992 4.83594C128.961 4.67969 128.909 4.53906 128.836 4.41406C128.768 4.28906 128.677 4.1875 128.562 4.10938C128.448 4.02604 128.305 3.98438 128.133 3.98438C127.924 3.98438 127.74 4.04167 127.578 4.15625C127.422 4.26562 127.286 4.40625 127.172 4.57812C127.057 4.74479 126.964 4.92708 126.891 5.125C126.818 5.32292 126.763 5.50521 126.727 5.67188L129.039 5.45312V5.28125ZM141.836 4.46875C141.836 4.875 141.799 5.24479 141.727 5.57812C141.659 5.90625 141.549 6.20833 141.398 6.48438C141.247 6.76042 141.052 7.01562 140.812 7.25C140.573 7.48438 140.284 7.70833 139.945 7.92188L141.805 11.2344L138.289 11.9219L137.086 8.59375L136.117 8.625L135.977 11.875H132.617C132.643 10.6875 132.667 9.50521 132.688 8.32812C132.714 7.15104 132.742 5.96875 132.773 4.78125C132.784 4.18229 132.794 3.58854 132.805 3C132.815 2.41146 132.836 1.81771 132.867 1.21875C133.232 1.08333 133.591 0.971354 133.945 0.882812C134.299 0.794271 134.654 0.726562 135.008 0.679688C135.367 0.627604 135.729 0.59375 136.094 0.578125C136.464 0.557292 136.841 0.546875 137.227 0.546875C137.82 0.546875 138.393 0.630208 138.945 0.796875C139.503 0.958333 139.995 1.20312 140.422 1.53125C140.849 1.85938 141.19 2.26823 141.445 2.75781C141.706 3.2474 141.836 3.81771 141.836 4.46875ZM138.336 4.71875C138.336 4.5 138.305 4.29948 138.242 4.11719C138.185 3.9349 138.096 3.77865 137.977 3.64844C137.862 3.51302 137.716 3.40885 137.539 3.33594C137.367 3.25781 137.164 3.21875 136.93 3.21875C136.826 3.21875 136.724 3.22656 136.625 3.24219C136.526 3.2526 136.43 3.27083 136.336 3.29688L136.211 6.20312H136.398C136.622 6.20312 136.849 6.17448 137.078 6.11719C137.312 6.0599 137.521 5.97135 137.703 5.85156C137.891 5.73177 138.042 5.57812 138.156 5.39062C138.276 5.20312 138.336 4.97917 138.336 4.71875Z" fill="white"/>
</svg>
